<?xml version="1.0" encoding="UTF-8"?>
<svg xmlns="http://www.w3.org/2000/svg" xmlns:xlink="http://www.w3.org/1999/xlink" viewBox="0 0 60 60" width="60px" height="60px">
<g id="surface2507552">
<path style=" stroke:none;fill-rule:nonzero;fill:rgb(47.058824%,34.901962%,81.960785%);fill-opacity:1;" d="M 30 4 C 22.292969 4 16 10.292969 16 18 L 16 22 L 12 22 C 9.789062 22 8 23.789062 8 26 L 8 50 C 8 52.210938 9.789062 54 12 54 L 48 54 C 50.210938 54 52 52.210938 52 50 L 52 26 C 52 23.789062 50.210938 22 48 22 L 20 22 L 20 18 C 20 12.453125 24.453125 8 30 8 C 34.367188 8 38.046875 10.789062 39.417969 14.667969 C 39.644531 15.359375 40.226562 15.871094 40.9375 16.007812 C 41.652344 16.148438 42.382812 15.886719 42.851562 15.332031 C 43.316406 14.777344 43.445312 14.011719 43.1875 13.332031 C 41.265625 7.894531 36.074219 4 30 4 Z M 30 4 "/>
</g>
</svg>
